<svg width="15" height="18" viewBox="0 0 15 18" fill="none" xmlns="http://www.w3.org/2000/svg">
<path fill-rule="evenodd" clip-rule="evenodd" d="M11.1411 3.93575C13.1835 3.93575 14.4895 5.91189 14.4895 5.91189C14.4895 5.91189 12.4972 6.99303 12.4972 9.341C12.4972 12.1278 15 12.9384 15 12.9384C15 12.9384 13.0245 17.6257 10.8063 17.6257C9.55904 17.6257 9.47569 16.9081 7.81809 16.9081C6.3786 16.9081 5.89315 17.6257 4.79658 17.6257C2.70364 17.6257 0 13.0567 0 9.341C0 5.48135 2.73732 3.93575 4.45323 3.93575C5.96009 3.93575 6.58763 4.82249 7.80124 4.82249C8.82267 4.82249 9.62642 3.93575 11.1411 3.93575ZM10.7899 0C11.091 1.89177 9.37505 4.23148 7.32444 4.15537C7.02298 1.74826 9.23296 0.126988 10.7899 0Z" fill="#495057"/>
</svg>
